<svg width="392" height="64" viewBox="0 0 392 64" fill="none" xmlns="http://www.w3.org/2000/svg">
<path d="M69.988 53L56.121 35.752L58.228 34.527L72.928 53H69.988ZM46.174 53V18.7H48.673V53H46.174ZM47.84 36.732V34.478H58.277V36.732H47.84ZM58.375 36.095L56.072 35.605L69.253 18.7H72.046L58.375 36.095ZM73.4701 53L89.2481 18.7H91.7471L107.525 53H104.83L89.9341 20.268H91.0121L76.1651 53H73.4701ZM79.2521 43.347L80.0851 41.24H100.616L101.449 43.347H79.2521ZM114.65 53V18.7H126.949C129.823 18.7 132.29 19.1573 134.348 20.072C136.406 20.9867 137.99 22.3097 139.101 24.041C140.211 25.7397 140.767 27.814 140.767 30.264C140.767 32.6487 140.211 34.7067 139.101 36.438C137.99 38.1693 136.406 39.4923 134.348 40.407C132.29 41.3217 129.823 41.779 126.949 41.779H116.022L117.149 40.603V53H114.65ZM117.149 40.75L116.022 39.525H126.949C130.64 39.525 133.433 38.7247 135.328 37.124C137.255 35.4907 138.219 33.204 138.219 30.264C138.219 27.2913 137.255 25.0047 135.328 23.404C133.433 21.7707 130.64 20.954 126.949 20.954H116.022L117.149 19.729V40.75ZM154.235 53V20.17L154.97 20.954H141.887V18.7H169.082V20.954H155.999L156.734 20.17V53H154.235ZM175.756 53V18.7H178.255V48.786L201.628 18.7H203.833V53H201.334V22.963L177.961 53H175.756ZM241.622 18.7H244.121V53H241.622V18.7ZM218.69 53H216.191V18.7H218.69V53ZM241.916 36.683H218.396V34.478H241.916V36.683ZM270.251 31.244C274.269 31.244 277.339 32.1423 279.463 33.939C281.586 35.7357 282.648 38.398 282.648 41.926C282.648 45.552 281.521 48.3123 279.267 50.207C277.045 52.069 273.828 53 269.614 53H256.482V18.7H258.981V31.244H270.251ZM269.663 50.893C273.093 50.893 275.69 50.1417 277.454 48.639C279.218 47.1363 280.1 44.915 280.1 41.975C280.1 39.0677 279.218 36.9117 277.454 35.507C275.722 34.0697 273.125 33.351 269.663 33.351H258.981V50.893H269.663ZM288.969 53V18.7H291.468V53H288.969Z" fill="#4D453A"/>
<line x1="8.74228e-08" y1="19" x2="220" y2="19" stroke="url(#paint0_linear_106_1178)" stroke-opacity="0.4" stroke-width="2"/>
<line x1="96" y1="42" x2="160" y2="42" stroke="url(#paint1_linear_106_1178)" stroke-opacity="0.4" stroke-width="2"/>
<line x1="290" y1="64" x2="290" y2="3.8147e-06" stroke="url(#paint2_linear_106_1178)" stroke-opacity="0.4" stroke-width="2"/>
<defs>
<linearGradient id="paint0_linear_106_1178" x1="0" y1="20" x2="220" y2="20" gradientUnits="userSpaceOnUse">
<stop stop-color="white" stop-opacity="0"/>
<stop offset="0.5" stop-color="white"/>
<stop offset="1" stop-color="white" stop-opacity="0"/>
</linearGradient>
<linearGradient id="paint1_linear_106_1178" x1="96" y1="43" x2="160" y2="43" gradientUnits="userSpaceOnUse">
<stop stop-color="white" stop-opacity="0"/>
<stop offset="0.5" stop-color="white"/>
<stop offset="1" stop-color="white" stop-opacity="0"/>
</linearGradient>
<linearGradient id="paint2_linear_106_1178" x1="291" y1="64" x2="291" y2="3.8147e-06" gradientUnits="userSpaceOnUse">
<stop stop-color="white" stop-opacity="0"/>
<stop offset="0.5" stop-color="white"/>
<stop offset="1" stop-color="white" stop-opacity="0"/>
</linearGradient>
</defs>
</svg>
