<svg width="20" height="25" viewBox="0 0 20 25" fill="none" xmlns="http://www.w3.org/2000/svg">
<path id="Vector" d="M7.54066 9.87646C7.54066 11.348 8.75031 12.5478 10.2265 12.5478C11.7027 12.5478 12.9124 11.348 12.9124 9.87646C12.9124 8.4049 11.7027 7.20512 10.2265 7.20512C8.75031 7.20512 7.54066 8.4049 7.54066 9.87646ZM0.934895 10.1146C0.934895 4.3568 5.34562 0.642903 10.2265 0.642903C15.1074 0.642903 19.5182 4.3568 19.5182 10.1146C19.5182 12.012 18.75 14.113 17.1717 16.4257C15.6253 18.6916 13.313 21.1431 10.2265 23.781C7.14001 21.1431 4.82778 18.6916 3.28136 16.4257C1.70305 14.113 0.934895 12.012 0.934895 10.1146Z" stroke="white" stroke-width="0.580727"/>
</svg>
